<svg width="56" height="56" viewBox="0 0 56 56" fill="none" xmlns="http://www.w3.org/2000/svg">
<g filter="url(#filter0_d)">
<rect width="48" height="48" transform="translate(4)" fill="#FCFCFC"/>
<circle cx="21" cy="22" r="8" fill="#012345"/>
<circle cx="39" cy="7" r="4" fill="#4959FF"/>
<path d="M20 45C23.0204 45 26.0112 44.4051 28.8017 43.2492C31.5922 42.0934 34.1277 40.3992 36.2635 38.2635C38.3992 36.1277 40.0934 33.5922 41.2492 30.8017C42.4051 28.0112 43 25.0204 43 22H34.72C34.72 23.9331 34.3393 25.8472 33.5995 27.6331C32.8598 29.419 31.7755 31.0417 30.4086 32.4086C29.0417 33.7755 27.419 34.8598 25.6331 35.5995C23.8472 36.3393 21.9331 36.72 20 36.72L20 45Z" fill="#4959FF"/>
</g>
<defs>
<filter id="filter0_d" x="0" y="0" width="56" height="56" filterUnits="userSpaceOnUse" color-interpolation-filters="sRGB">
<feFlood flood-opacity="0" result="BackgroundImageFix"/>
<feColorMatrix in="SourceAlpha" type="matrix" values="0 0 0 0 0 0 0 0 0 0 0 0 0 0 0 0 0 0 127 0"/>
<feOffset dy="4"/>
<feGaussianBlur stdDeviation="2"/>
<feColorMatrix type="matrix" values="0 0 0 0 0 0 0 0 0 0 0 0 0 0 0 0 0 0 0.25 0"/>
<feBlend mode="normal" in2="BackgroundImageFix" result="effect1_dropShadow"/>
<feBlend mode="normal" in="SourceGraphic" in2="effect1_dropShadow" result="shape"/>
</filter>
</defs>
</svg>
